<svg width="536" height="317" viewBox="0 0 536 317" fill="none" xmlns="http://www.w3.org/2000/svg">
<path d="M189.1 101.4H101.5V167.4H189.1V101.4Z" fill="#F8D7BC"/>
<path d="M92.6 96.1001V101.4H188.8V167.4H92.6V172.3H462.5V96.1001H92.6Z" fill="#4E53BA"/>
<path d="M16.5 179.2H283.7C312.2 179.2 335.6 202.5 335.6 231.1V234.7C335.6 263.2 312.6 286.6 284.1 286.6H16.6V179.2H16.5Z" fill="#F8ECE2"/>
<path d="M482.6 172.3H3.69995C1.69995 172.3 0.400024 173.6 0.400024 175.6C0.400024 177.6 1.69995 178.9 3.69995 178.9H282C311.5 178.9 335.5 202.9 335.5 232.4C335.5 261.9 311.9 285.9 282.3 286.2C282.3 286.2 282.3 286.2 282 286.2H3.59998C1.59998 286.2 0.300049 287.5 0.300049 289.5C0.300049 291.5 1.59998 292.8 3.59998 292.8H482.5C512 292.8 536 268.8 536 239.3V226.2C536.1 196.6 512.1 172.6 482.6 172.3C482.6 172.6 482.6 172.6 482.6 172.3Z" fill="#FF5856"/>
<path d="M292.2 202.1H16.5V198.5H292.2C293.2 198.5 294.2 199.5 294.2 200.5C294.1 201.5 293.2 202.1 292.2 202.1Z" fill="#EBD0BE"/>
<path d="M164.8 151.6H101.4V148H165.1C166.1 148 167.1 149 167.1 150C166.8 150.9 165.8 151.6 164.8 151.6Z" fill="#E0C1A6"/>
<path d="M149.7 130.9H101.4V127.3H150C151 127.3 152 128 152 129.3C151.7 129.9 151 130.9 149.7 130.9Z" fill="#E0C1A6"/>
<path d="M312.2 243.8H16.5V240.2H312.2C313.2 240.2 314.2 241.2 314.2 242.2C314.2 243.2 313.2 243.8 312.2 243.8Z" fill="#EBD0BE"/>
<path d="M275.8 267.1H16.5V263.2H275.8C276.8 263.2 277.8 263.9 277.8 264.8C277.7 266.2 276.7 266.8 275.8 267.1Z" fill="#EBD0BE"/>
<path d="M303.3 223.5H16.4V219.9H303.3C304.3 219.9 305.3 220.9 305.3 221.9C305 222.5 304.3 223.5 303.3 223.5Z" fill="#EBD0BE"/>
<path d="M265.5 90.2H158.2V50.5H265.5C271.7 50.5 276.7 55.4 276.7 61.7V79.3999C276.7 85.2999 271.8 90.2 265.5 90.2Z" fill="#F8D0B3"/>
<path d="M474.7 44.6001H149.1C147.5 44.6001 146.2 45.9 146.2 47.5C146.2 49.1 147.5 50.3999 149.1 50.3999H265.6C271.8 50.3999 276.8 55.3001 276.8 61.6001V79C276.8 85.2 271.9 90.2 265.6 90.2H149.7C148.1 90.5 146.8 91.8 147.1 93.5C147.1 94.8 148.4 96.1001 149.7 96.1001H474.7C480.9 96.1001 485.9 91.1999 485.9 84.8999V55.3999C485.9 50.0999 480.6 44.6001 474.7 44.6001Z" fill="#FF7A82"/>
<path d="M140.9 3.5H315.9C326.1 3.5 334.6 11.7 334.6 22.2V23.5C334.6 33.7 326.4 42.2 315.9 42.2H140.9V3.5Z" fill="#F8E7D8"/>
<path d="M439.9 0.899902H133.3C132.6 0.899902 132 1.59995 132 2.19995C132 2.89995 132.7 3.5 133.3 3.5H315.2C325.7 3.5 334.6 11.9999 334.6 22.8999C334.6 33.3999 326.1 42.3 315.2 42.3H133.3C132.6 42.3 132 43.0001 132 43.6001C132 44.3001 132.7 44.8999 133.3 44.8999H439.9C450.4 44.8999 459.3 36.4 459.3 25.5V20.2C459.3 9.39995 450.4 0.899902 439.9 0.899902Z" fill="#2B31BA"/>
<path d="M295.8 14.3999H140.9V12.8H295.8C296.5 12.8 296.8 13.1 296.8 13.8C296.8 14 296.5 14.3999 295.8 14.3999Z" fill="#DEBCA7"/>
<path d="M281 33.3999H140.8V31.8H281C281.7 31.8 282 32.1 282 32.8C282 33.1 281.7 33.3999 281 33.3999Z" fill="#DEBCA7"/>
<path d="M313.2 23.8999H140.9V21.8999H313.2C313.5 21.8999 314.2 22.1999 314.2 22.8999C314.2 23.1999 313.9 23.8999 313.2 23.8999Z" fill="#DEBCA7"/>
<path d="M244.3 240.2H201.3C201.3 240.2 194.4 242.5 188.5 253.7C181.3 267.5 183.6 280.6 179 290.8C176.1 297.7 171.1 303.3 164.9 307.2C169.8 307.9 175.1 308.2 180.3 307.5C184.6 306.5 188.5 304.9 191.8 302.2C192.8 304.5 193.1 306.8 193.4 309.1C193.7 311.4 193.7 314 193.4 316.3C193.4 316.3 209.2 312.7 215.4 303.5C224.3 291 216.7 275.6 228.5 256.2C232.8 250.4 238 244.8 244.3 240.2Z" fill="#BFA990"/>
</svg>
